<svg stroke="currentColor" fill="currentColor" stroke-width="0" viewBox="0 0 240 240" height="240px" width="240px" xmlns="http://www.w3.org/2000/svg">
  <rect x="0" y="0" width="240" height="240" rx="24" ry="24" fill="black"/>
  <path d="M4 11h6a1 1 0 0 0 1-1V4a1 1 0 0 0-1-1H4a1 1 0 0 0-1 1v6a1 1 0 0 0 1 1zm0 10h6a1 1 0 0 0 1-1v-6a1 1 0 0 0-1-1H4a1 1 0 0 0-1 1v6a1 1 0 0 0 1 1zm10 0h6a1 1 0 0 0 1-1v-6a1 1 0 0 0-1-1h-6a1 1 0 0 0-1 1v6a1 1 0 0 0 1 1zm7.293-14.707-3.586-3.586a.999.999 0 0 0-1.414 0l-3.586 3.586a.999.999 0 0 0 0 1.414l3.586 3.586a.999.999 0 0 0 1.414 0l3.586-3.586a.999.999 0 0 0 0-1.414z"
    fill="white"
    transform="scale(10)"
  >
  </path>
</svg>
